{"title":"UFC.Ultimate.Knockouts.Ultimate.Fighter.Alumni.HDTV.x264-FiNCH","uid":10553724,"size":183630259,"categoryP":"video","categoryS":"tv_shows","magnet":"?xt=urn:btih:80a5b5a936ffd02901946686db70d7502d6ae55e&amp;dn=UFC.Ultimate.Knockouts.Ultimate.Fighter.Alumni.HDTV.x264-FiNCH&amp;tr=udp%3A%2F%2Ftracker.openbittorrent.com%3A80&amp;tr=udp%3A%2F%2Fopen.demonii.com%3A1337&amp;tr=udp%3A%2F%2Ftracker.coppersurfer.tk%3A6969&amp;tr=udp%3A%2F%2Fexodus.desync.com%3A6969","seeders":1,"leechers":1,"uploader":"FiNCH","files":-1,"time":1405367688,"description":"***************************************************************\nUFC.Ultimate.Knockouts.Ultimate.Fighter.Alumni.HDTV.x264-FiNCH\n***************************************************************\n\n-------------------------------------------------------------------------------\nGeneral Information\n-------------------------------------------------------------------------------\n\nFormat                                   : MPEG-4\nFormat profile                           : Base Media\nCodec ID                                 : isom\nFile size                                : 175 MiB\nDuration                                 : 21mn 21s\nOverall bit rate                         : 1 146 Kbps\nEncoded date                             : UTC 2014-07-14 17:32:52\nTagged date                              : UTC 2014-07-14 17:35:25\nWriting application                      : mp4creator 1.6.1d\n\nVideo\nID                                       : 1\nFormat                                   : AVC\nFormat/Info                              : Advanced Video Codec\nFormat profile                           : &lt;a class=&quot;__cf_email__&quot; href=&quot;/cdn-cgi/l/email-protection&quot; data-cfemail=&quot;5119383639111d627f60&quot;&gt;[email&amp;#160;protected]&lt;/a&gt;&lt;script cf-hash='f9e31' type=&quot;text/javascript&quot;&gt;\n/* &lt;![CDATA[ */!function(){try{var t=&quot;currentScript&quot;in document?document.currentScript:function(){for(var t=document.getElementsByTagName(&quot;script&quot;),e=t.length;e--;)if(t[e].getAttribute(&quot;cf-hash&quot;))return t[e]}();if(t&amp;&amp;t.previousSibling){var e,r,n,i,c=t.previousSibling,a=c.getAttribute(&quot;data-cfemail&quot;);if(a){for(e=&quot;&quot;,r=parseInt(a.substr(0,2),16),n=2;a.length-n;n+=2)i=parseInt(a.substr(n,2),16)^r,e+=String.fromCharCode(i);e=document.createTextNode(e),c.parentNode.replaceChild(e,c)}}}catch(u){}}();/* ]]&gt; */&lt;/script&gt;\nFormat settings, CABAC                   : Yes\nFormat settings, ReFrames                : 5 frames\nCodec ID                                 : avc1\nCodec ID/Info                            : Advanced Video Coding\nDuration                                 : 21mn 21s\nBit rate                                 : 1 029 Kbps\nMaximum bit rate                         : 1 599 Kbps\nWidth                                    : 800 pixels\nHeight                                   : 404 pixels\nDisplay aspect ratio                     : 1.980\nFrame rate mode                          : Constant\nFrame rate                               : 29.970 fps\nColor space                              : YUV\nChroma subsampling                       : 4:2:0\nBit depth                                : 8 bits\nScan type                                : Progressive\nBits/(Pixel*Frame)                       : 0.106\nStream size                              : 157 MiB (90%)\nWriting library                          : x264 core 138 r2358 9e941d1\nEncoding settings                        : cabac=1 / ref=5 / deblock=1:1:0 / analyse=0x3:0x113 / me=umh / subme=8 / psy=1 / psy_rd=1.00:0.00 / mixed_ref=1 / me_range=16 / chroma_me=1 / trellis=1 / 8x8dct=1 / cqm=0 / deadzone=21,11 / fast_pskip=1 / chroma_qp_offset=-2 / threads=12 / lookahead_threads=2 / sliced_threads=0 / nr=0 / decimate=1 / interlaced=0 / bluray_compat=0 / constrained_intra=0 / bframes=3 / b_pyramid=2 / b_adapt=2 / b_bias=0 / direct=1 / weightb=1 / open_gop=0 / weightp=2 / keyint=300 / keyint_min=27 / scenecut=40 / intra_refresh=0 / rc_lookahead=50 / rc=crf / mbtree=1 / crf=20.0 / qcomp=0.60 / qpmin=0 / qpmax=69 / qpstep=4 / vbv_maxrate=1200 / vbv_bufsize=1000 / crf_max=0.0 / nal_hrd=none / ip_ratio=1.40 / aq=1:1.00\nEncoded date                             : UTC 2014-07-14 17:32:52\nTagged date                              : UTC 2014-07-14 17:32:53\n\nAudio\nID                                       : 2\nFormat                                   : MPEG Audio\nFormat version                           : Version 1\nFormat profile                           : Layer 3\nMode                                     : Joint stereo\nMode extension                           : MS Stereo\nCodec ID                                 : 6B\nDuration                                 : 20mn 45s\nSource duration                          : 21mn 21s\nBit rate mode                            : Constant\nBit rate                                 : 112 Kbps\nChannel(s)                               : 2 channels\nSampling rate                            : 48.0 KHz\nCompression mode                         : Lossy\nStream size                              : 17.1 MiB (10%)\nSource stream size                       : 17.1 MiB (10%)\nWriting library                          : LAME3.99r\nEncoding settings                        : -m j -V 4 -q 3 -lowpass 15.6 -b 112\nLanguage                                 : English\nEncoded date                             : UTC 2014-07-14 17:35:25\nTagged date                              : UTC 2014-07-14 17:35:25\n\n-------------------------------------------------------------------------------\n-------------------------------------------------------------------------------\n\nSCREENS\n  &lt;a href=&quot;\nhttp://postimg.org/image/udu6jt06d/&quot; rel=&quot;nofollow&quot; target=&quot;_NEW&quot;&gt;\nhttp://postimg.org/image/udu6jt06d/&lt;/a&gt;  &lt;a href=&quot;\nhttp://postimg.org/image/46sznuhwl/&quot; rel=&quot;nofollow&quot; target=&quot;_NEW&quot;&gt;\nhttp://postimg.org/image/46sznuhwl/&lt;/a&gt;  &lt;a href=&quot;\nhttp://postimg.org/image/85uskevxh/&quot; rel=&quot;nofollow&quot; target=&quot;_NEW&quot;&gt;\nhttp://postimg.org/image/85uskevxh/&lt;/a&gt;  &lt;a href=&quot;\nhttp://postimg.org/image/8tz1pm59h/&quot; rel=&quot;nofollow&quot; target=&quot;_NEW&quot;&gt;\nhttp://postimg.org/image/8tz1pm59h/&lt;/a&gt;  &lt;a href=&quot;\nhttp://postimg.org/image/z4ynfkied/&quot; rel=&quot;nofollow&quot; target=&quot;_NEW&quot;&gt;\nhttp://postimg.org/image/z4ynfkied/&lt;/a&gt;\t\t","torrent":{"xt":"urn:btih:80a5b5a936ffd02901946686db70d7502d6ae55e","amp;dn":"UFC.Ultimate.Knockouts.Ultimate.Fighter.Alumni.HDTV.x264-FiNCH","amp;tr":["udp%3A%2F%2Ftracker.openbittorrent.com%3A80","udp%3A%2F%2Fopen.demonii.com%3A1337","udp%3A%2F%2Ftracker.coppersurfer.tk%3A6969","udp%3A%2F%2Fexodus.desync.com%3A6969"],"infoHash":"80a5b5a936ffd02901946686db70d7502d6ae55e","infoHashBuffer":{"type":"Buffer","data":[128,165,181,169,54,255,208,41,1,148,102,134,219,112,215,80,45,106,229,94]},"announce":[],"urlList":[]}}